<svg xmlns="http://www.w3.org/2000/svg" xmlns:xlink="http://www.w3.org/1999/xlink" width="48" height="48" id="ecommerce"><defs><linearGradient id="b" x1="949.87" x2="974.39" y1="518.014" y2="544.657" gradientTransform="translate(-1269.353 831.363) scale(1.53785)" gradientUnits="userSpaceOnUse" xlink:href="#a"></linearGradient><linearGradient id="a"><stop offset="0" stop-color="#24f7bc"></stop><stop offset="1" stop-color="#24c4fc"></stop></linearGradient></defs><g transform="translate(-185 -1624.382)"><rect width="48" height="48" x="185" y="1624.382" fill="url(#b)" rx="10.144" ry="10.144"></rect><path style="line-height:normal;-inkscape-font-specification:Sans;text-indent:0;text-align:start;text-decoration-line:none;text-transform:none;block-progression:tb;marker:none" fill="#fff" d="M209.759 1631.852a.517.517 0 0 0-.406.5v1.25c-.474.137-.91.327-1.344.563l-.875-.907a.52.52 0 0 0-.719 0l-2 2a.52.52 0 0 0 0 .72l.906.874a6.68 6.68 0 0 0-.562 1.344h-1.25a.52.52 0 0 0-.5.5V1640.383h-2.156l-.625-2.625c-.083-.31-.22-.375-.657-.375h-3.562v1h3.344l3.468 14.594a.501.501 0 0 0 .063.125v.03c.009.023.02.043.031.063l.875 3.781c-1.348.408-2.344 1.648-2.344 3.125a3.29 3.29 0 0 0 3.282 3.281 3.29 3.29 0 0 0 3.28-3.281c0-.886-.36-1.69-.937-2.281h6.313a3.264 3.264 0 0 0-.938 2.281 3.29 3.29 0 0 0 3.282 3.281 3.29 3.29 0 0 0 3.28-3.281c0-1.633-1.214-2.973-2.78-3.219-3.374 0-7.66-.062-11.438-.062l-.812-3.437h13.906a.512.512 0 0 0 .5-.375l3.594-12c.074-.29-.17-.616-.47-.625h-2a.5.5 0 0 0 0-.031v-1.656a.52.52 0 0 0-.5-.5h-1.25a6.67 6.67 0 0 0-.562-1.344l.907-.875a.52.52 0 0 0 0-.719l-2-2a.52.52 0 0 0-.72 0l-.874.906a6.676 6.676 0 0 0-1.344-.562v-1.25a.52.52 0 0 0-.5-.5H209.76zm.594 1h1.812v1.063a.517.517 0 0 0 .406.5c.64.146 1.225.4 1.782.75.189.124.463.096.625-.062l.78-.75 1.25 1.25-.75.78a.514.514 0 0 0-.062.595c.348.557.606 1.17.75 1.812.044.23.267.41.5.406h1.063v1.187h-14.5a.5.5 0 0 0 0-.03v-1.157h1.062a.52.52 0 0 0 .5-.406c.146-.64.401-1.225.75-1.781a.516.516 0 0 0-.062-.625l-.75-.781 1.25-1.25.781.75c.157.144.41.17.594.062a5.861 5.861 0 0 1 1.812-.75.517.517 0 0 0 .407-.5zm.906 3.25c-2.203 0-4 1.797-4 4 0 .086.026.166.031.25h1c-.007-.084-.031-.164-.031-.25 0-1.663 1.337-3 3-3s3 1.337 3 3c0 .086-.024.166-.031.25h1c.005-.084.03-.164.03-.25 0-2.203-1.796-4-4-4zm-10.156 5.281h19.75l-.594 2h-12.25v1h11.937l-.625 2h-9.312v1h9.031l-.625 2h-6.406v1h6.125l-.625 2h-13.781zm3.625 16.438a2.276 2.276 0 0 1 2.28 2.281 2.276 2.276 0 0 1-2.28 2.281 2.276 2.276 0 0 1-2.282-2.28 2.276 2.276 0 0 1 2.282-2.282zm11 0a2.276 2.276 0 0 1 2.28 2.281 2.276 2.276 0 0 1-2.28 2.281 2.276 2.276 0 0 1-2.282-2.28 2.276 2.276 0 0 1 2.282-2.282zm-11 .75c-.823 0-1.5.677-1.5 1.5 0 .822.677 1.5 1.5 1.5.822 0 1.5-.678 1.5-1.5 0-.823-.678-1.5-1.5-1.5zm11 0c-.823 0-1.5.677-1.5 1.5 0 .822.677 1.5 1.5 1.5.822 0 1.5-.678 1.5-1.5 0-.823-.678-1.5-1.5-1.5zm-11 1c.282 0 .5.218.5.5 0 .282-.218.5-.5.5a.493.493 0 0 1-.5-.5c0-.282.218-.5.5-.5zm11 0c.282 0 .5.218.5.5 0 .282-.218.5-.5.5a.493.493 0 0 1-.5-.5c0-.282.218-.5.5-.5z" color="#000" font-family="Sans" font-weight="400" overflow="visible"></path></g></svg>